<svg enable-background="new 0 0 64 64" height="64" viewBox="0 0 64 64" width="64" xmlns="http://www.w3.org/2000/svg" xmlns:xlink="http://www.w3.org/1999/xlink"><clipPath id="a"><circle cx="32" cy="31.8" r="10"/></clipPath><g fill="#3cf"><path d="m42.9 51.3c-.6 0-1.1-.5-1.1-1.1 0-.4.2-.7.5-.9 1.4-.9 2.7-1.9 3.9-3 7.9-7.9 7.9-20.7 0-28.6-3.6-3.6-8.4-5.7-13.4-5.9-.6-.1-1-.6-.9-1.2.1-.5.5-.9 1-.9 12.3.6 21.8 11 21.3 23.3-.3 7.5-4.4 14.3-10.8 18.1-.1.1-.3.2-.5.2z"/><path d="m26.1 53.5c-.1 0-.2 0-.3 0-3.6-1.1-6.9-3-9.5-5.7-8.7-8.7-8.7-22.9 0-31.6 3-3 6.9-5.1 11-6 .6-.1 1.1.2 1.2.8s-.2 1.1-.8 1.2c-3.8.8-7.3 2.7-10 5.5-7.9 7.9-7.9 20.7 0 28.6 2.4 2.4 5.4 4.2 8.6 5.1.6.2.9.8.7 1.3-.1.5-.5.8-.9.8z"/><path d="m32 59.2c-11 0-20.9-6.7-25.1-16.8-.2-.5 0-1.2.6-1.4.5-.2 1.2 0 1.4.6 5.3 12.8 19.9 18.9 32.7 13.6.7-.3 1.4-.6 2-1 .5-.3 1.2 0 1.4.5.3.5.1 1.1-.4 1.4-3.9 2-8.2 3.1-12.6 3.1z"/><path d="m47.5 54.1c-.6 0-1.1-.5-1.1-1.1 0-.3.2-.7.4-.9 1-.8 2-1.6 2.9-2.5 1.9-1.9 3.5-4.2 4.8-6.6.2-.5.9-.8 1.4-.5.5.2.8.9.5 1.4v.1c-1.9 3.9-4.8 7.3-8.3 9.8-.2.2-.4.3-.6.3z"/><path d="m56.7 41.5c-.1 0-.2 0-.3-.1-.6-.2-.8-.8-.7-1.3 3.1-9 .8-19.1-6-25.8-9.8-9.8-25.6-9.8-35.4 0-4.6 4.6-7.2 10.7-7.3 17.2 0 .6-.5 1-1.1 1-.6 0-1-.5-1-1.1.1-7 3-13.7 7.9-18.6 10.6-10.6 27.8-10.6 38.4 0 7.4 7.4 9.9 18.1 6.5 28-.2.4-.6.7-1 .7z"/><path d="m16.6 6.2c-.6 0-1.1-.5-1.1-1.1 0-.4.2-.7.5-.9 7.7-4.4 17-5.4 25.5-2.8.6.2.9.8.7 1.3s-.8.8-1.3.7c-8-2.4-16.6-1.4-23.8 2.7-.2.1-.3.1-.5.1z"/><path d="m4.9 18.1c-.6 0-1.1-.5-1.1-1.1 0-.2 0-.4.1-.5 1.5-2.6 3.3-5.1 5.4-7.2 1.1-1.1 2.2-2.1 3.4-3 .5-.3 1.2-.3 1.6.2.4.4.4 1.1-.1 1.5 0 0-.1.1-.2.1-1.1.9-2.2 1.8-3.2 2.8-2 2-3.7 4.2-5.1 6.7-.1.3-.4.5-.8.5z"/><path d="m32 64c-17.6 0-32-14.3-32-31.9 0-4 .8-8.1 2.2-11.8.2-.5.9-.8 1.4-.6s.8.8.6 1.3c-6.1 15.4 1.5 32.7 16.8 38.8 4.9 1.9 10.3 2.5 15.5 1.8.6 0 1.1.4 1.1 1 0 .5-.3 1-.8 1.1-1.6.2-3.2.3-4.8.3z"/><path d="m42 62.3c-.6 0-1.1-.5-1.1-1.1 0-.5.3-.9.7-1 4.3-1.5 8.2-3.9 11.4-7.1.8-.8 1.5-1.6 2.2-2.5.4-.5 1-.5 1.5-.2.5.4.5 1 .2 1.5-.8.9-1.6 1.8-2.4 2.7-3.4 3.5-7.6 6.1-12.2 7.6 0 .1-.1.1-.3.1z"/><path d="m62.1 40.3c-.1 0-.2 0-.2 0-.6-.1-.9-.7-.8-1.3 2.4-10.2-.5-20.7-7.9-28.1-.4-.4-.4-1.1 0-1.5s1-.4 1.5 0c7.9 7.9 11.1 19.2 8.5 30.1-.2.4-.6.8-1.1.8z"/><circle cx="32" cy="31.8" r="10"/><path clip-path="url(#a)" d="m22 37.6 7.3 4.2h-7.3z"/><path clip-path="url(#a)" d="m22 37.2 8.1 4.6h-.8l-7.3-4.2z"/><path clip-path="url(#a)" d="m22 36.7 8.8 5.1h-.7l-8.1-4.6z"/><path clip-path="url(#a)" d="m22 36.3 9.6 5.5h-.8l-8.8-5.1z"/><path clip-path="url(#a)" d="m22 35.9 10.3 5.9h-.7l-9.6-5.5z"/><path clip-path="url(#a)" d="m22 35.4 11.1 6.4h-.8l-10.3-5.9z"/><path clip-path="url(#a)" d="m22 35 11.9 6.8h-.8l-11.1-6.4z"/><path clip-path="url(#a)" d="m22 34.6 12.6 7.2h-.7l-11.9-6.8z"/><path clip-path="url(#a)" d="m22 34.1 13.4 7.7h-.8l-12.6-7.2z"/><path clip-path="url(#a)" d="m22 33.7 14.1 8.1h-.7l-13.4-7.7z"/><path clip-path="url(#a)" d="m22 33.2 14.9 8.6h-.8l-14.1-8.1z"/><path clip-path="url(#a)" d="m22 32.8 15.6 9h-.7l-14.9-8.6z"/><path clip-path="url(#a)" d="m22 32.4 16.4 9.4h-.8l-15.6-9z"/><path clip-path="url(#a)" d="m22 31.9 17.2 9.9h-.8l-16.4-9.4z"/><path clip-path="url(#a)" d="m22 31.5 17.9 10.3h-.7l-17.2-9.9z"/><path clip-path="url(#a)" d="m22 31.1 18.5 10.6-.1.1h-.5l-17.9-10.3z"/><path clip-path="url(#a)" d="m22 30.6 18.7 10.8-.2.3-18.5-10.6z"/><path clip-path="url(#a)" d="m22 30.2 18.9 10.9-.2.3-18.7-10.8z"/><path clip-path="url(#a)" d="m22 29.7 19.1 11.1-.2.3-18.9-10.9z"/><path clip-path="url(#a)" d="m22 29.3 19.2 11.1-.1.4-19.1-11.1z"/><path clip-path="url(#a)" d="m22 28.9 19.4 11.2-.2.3-19.2-11.1z"/><path clip-path="url(#a)" d="m22 28.4 19.6 11.4-.2.3-19.4-11.2z"/><path clip-path="url(#a)" d="m22 28 19.8 11.4-.2.4-19.6-11.4z"/><path clip-path="url(#a)" d="m22 27.6 20 11.5-.2.3-19.8-11.4z"/><path clip-path="url(#a)" d="m22 27.1 20 11.6v.3.1l-20-11.5z"/><path clip-path="url(#a)" d="m22 26.7 20 11.6v.4l-20-11.6z"/><path clip-path="url(#a)" d="m22 26.2 20 11.6v.5l-20-11.6z"/><path clip-path="url(#a)" d="m22 25.8 20 11.6v.4l-20-11.6z"/><path clip-path="url(#a)" d="m22 25.4 20 11.6v.4l-20-11.6z"/><path clip-path="url(#a)" d="m22 24.9 20 11.6v.5l-20-11.6z"/><path clip-path="url(#a)" d="m22 24.6v-.1l20 11.6v.4l-20-11.6z"/><path clip-path="url(#a)" d="m22 24.5.2-.3 19.8 11.4v.5z"/><path clip-path="url(#a)" d="m22.2 24.2.2-.3 19.6 11.3v.4z"/><path clip-path="url(#a)" d="m22.4 23.9.2-.4 19.4 11.3v.4z"/><path clip-path="url(#a)" d="m22.6 23.5.2-.3 19.2 11.1v.5z"/><path clip-path="url(#a)" d="m22.8 23.2.2-.3 19 11v.4z"/><path clip-path="url(#a)" d="m23 22.9.2-.3 18.8 10.9v.4z"/><path clip-path="url(#a)" d="m23.2 22.6.1-.4 18.7 10.8v.5z"/><path clip-path="url(#a)" d="m23.3 22.2.2-.3 18.5 10.7v.4z"/><path clip-path="url(#a)" d="m23.5 21.9.1-.1h.5l17.9 10.3v.5z"/><path clip-path="url(#a)" d="m24.9 21.8 17.1 9.9v.4l-17.9-10.3z"/><path clip-path="url(#a)" d="m25.6 21.8 16.4 9.5v.4l-17.1-9.9z"/><path clip-path="url(#a)" d="m26.4 21.8 15.6 9v.5l-16.4-9.5z"/><path clip-path="url(#a)" d="m27.1 21.8 14.9 8.6v.4l-15.6-9z"/><path clip-path="url(#a)" d="m27.9 21.8 14.1 8.2v.4l-14.9-8.6z"/><path clip-path="url(#a)" d="m28.6 21.8 13.4 7.7v.5l-14.1-8.2z"/><path clip-path="url(#a)" d="m29.4 21.8 12.6 7.3v.4l-13.4-7.7z"/><path clip-path="url(#a)" d="m30.2 21.8 11.8 6.8v.5l-12.6-7.3z"/><path clip-path="url(#a)" d="m30.9 21.8 11.1 6.4v.4l-11.8-6.8z"/><path clip-path="url(#a)" d="m31.7 21.8 10.3 6v.4l-11.1-6.4z"/><path clip-path="url(#a)" d="m32.4 21.8 9.6 5.5v.5l-10.3-6z"/><path clip-path="url(#a)" d="m33.2 21.8 8.8 5.1v.4l-9.6-5.5z"/><path clip-path="url(#a)" d="m33.9 21.8 8.1 4.7v.4l-8.8-5.1z"/><path clip-path="url(#a)" d="m34.7 21.8 7.3 4.2v.5l-8.1-4.7z"/><path clip-path="url(#a)" d="m42 26-7.3-4.2h7.3z"/><path d="m31.9 47.8c-8.8 0-16-7.2-16-16s7.2-16 16-16c6 0 11.5 3.3 14.2 8.7.3.6 0 1.2-.5 1.5s-1.2 0-1.5-.5c-3.5-6.7-11.7-9.4-18.5-5.9s-9.4 11.7-5.9 18.5 11.7 9.4 18.5 5.9c4.6-2.3 7.4-7.1 7.4-12.2 0-.6.5-1.1 1.1-1.1s1.1.5 1.1 1.1c0 8.8-7.1 16-15.9 16z"/></g></svg>